<?xml version="1.0" encoding="utf-8"?>
<!-- Generator: Adobe Illustrator 18.1.1, SVG Export Plug-In . SVG Version: 6.00 Build 0)  -->
<svg version="1.1" id="Layer_1" xmlns="http://www.w3.org/2000/svg" xmlns:xlink="http://www.w3.org/1999/xlink" x="0px" y="0px"
	 viewBox="0 0 422.6 90.4" enable-background="new 0 0 422.6 90.4" xml:space="preserve">
<path fill="#FFFFFF" d="M244.4,82.9c9.5,2.4,13.1-2.2,15.1-5.2c0.8-1.1,0.4-4.7-0.5-4.4c-0.4,0.2-1.5,1-2.6,2
	c-2.1,2-4.8,4.5-6.9-0.1l0,0c-1.2-2.6-1.6-3.5-2-6.4c-0.6-5.2,0.4-8.8,0.2-14.1c-0.2-3.8-3.2-5.2-6.7-4.6c-2.9,0.6-5.3,2.2-7.3,4.5
	c-1.5,1.6-3,3.3-4.6,5c-0.5-2.8-0.8-5.4-1.5-7.8c-0.7-2.7-2.5-3.6-5.2-3.2c-4.5,0.7-7.9,3.5-11,7.2c-1.1,1.3-2.1,2.2-3.4,3.8
	c-0.1-2.2-0.1-3.7-0.2-5.4c-0.2-3.1-1.7-4.3-4.4-3c-3.4,1.7-5.5,5-8.1,8.7c-3.3,4.7-6.4,13.7-10.6,16.4c-3.1,1.8-5.6,0.1-5.4-1.5
	c0.7-5.2,1.5-10.4,2.1-15.6c0.6-4.7,1.4-10.3,1.8-15c0.2-3.1-1.4-4.5-4.3-4.3c-5,0.4-7.3,4.1-8.8,8.5c-1.1,3.2-2.1,7.6-3.1,10.9
	c-1.6,5.4-3.3,10.8-7.3,14.6c-1.4,1.3-3.2,2.3-5.1,2.9c-1.9,0.6-2.9-0.3-3.1-2.6c-0.2-1.5-0.1-3,0.1-4.4c0.9-6.7,1.9-11.6,2.7-18.3
	c0.5-4.1-2-4.7-6-4c-1.9,0.3-4.5,1.2-5.8,3.9c-0.3,0.6-0.5,1.1-0.7,1.6l0,0c0,0,0,0,0,0c-0.2,0.5-0.3,0.9-0.4,1.5
	c-2.3,8.7-5.3,14.1-8.2,18.8c-3.7,5.8-9.1,11.4-10.8,9.2c-3.5-4.5,1.9-14.2,4.5-19.9c2.6-5.7,5.4-8,3.4-12.1
	c-1.5-3.2-4.1-7.3-7.9-6.9c-3.5,0.4-5.4,1.1-9.3,2.2c-3,0.8-0.9-2.3-0.5-4.5c0.5-3.5-2.8-3.8-5.9-3.2c-3.1,0.6-5,2.5-5.5,5.7
	c-0.5,3.1,2.7,5.8,2.7,6.1c0,0.2-2.3,6.9-3.4,9.6C97.1,68.1,95.4,71,92.8,72c-2.6,1-3.6-2-3.3-4.4c0.9-7,3-14.8,3.1-21.8
	c0.2-7.1-0.5-9.2-4.6-12.2c-1.1-0.8-4.2-0.6-6.3,4.5c-0.3,0.8-3.2,7.6-5.8,14c-1.1,2.6-6.4,14.7-10.6,20.9c-1.7,2.2-3.5,3.5-4.3,1.7
	c-1-2.3-1.4-4.8-1.6-7.4c-0.5-5.2-0.1-10.8-0.6-16c-0.4-3.9-2.8-5.2-6.6-4.1c-3,0.8-5.4,2.6-7.5,5.1c-1.5,1.8-3.1,3.6-4.7,5.6
	c-0.7-2.7-1.1-5.2-1.9-7.6c-0.9-2.8-2.8-3.5-5.8-2.7c-4.7,1.1-8.2,4.3-11.2,8.1c-1.1,1.4-1,1.2-2.3,3c-0.1-1.6,0.2-3.9-0.3-7.2
	c-0.4-2.8-1.8-3.4-4.4-2.7c-2.6,0.7-4.1,1.5-4.1,1.5c-2.8,1.2-7.5,4-9,6.4c-1.1,1.8-1,5.7-0.1,5.6c2.3-0.1,4.6-3.4,5.6-4.4
	c0.8-0.8,2.7-2.8,3.4-3c0,0-0.5,2.1-1,3.7C8.2,60.2,7.1,64,7,64.5c-1.7,6.2-1.8,11.2-1.7,14.3c0.1,3.4-0.3,6.9,4.7,8.2
	c1.5,0.4,2.8,0.9,3.7,0.4c2-1.2,2.7-2.4,3.2-4.7c0.3-1.9-0.4-7.6,0.1-12.4c0.6-5.6,3.1-9.8,7.8-13c2.3-1.5,4.7-0.9,5.1,1.6
	c0.2,1.2,0,2.6-0.1,3.8c-0.6,4.9-1.2,7.1-1.7,12c-0.5,4.8-1.5,7,3,9.4c0.6,0.3,3.8,1.4,4.6,1.4c3.9,0.1,4.4-2.7,4.6-5.7
	c0.3-4.7-0.6-7.6-0.7-12.2c-0.1-3.9,0.2-5,3.7-8c1.7-1.5,3.6-3,5.7-1.9c1.9,1,1.7,3.3,1.4,5.4c-0.5,3.7-1.1,7.7-0.8,11.4
	c0.4,6.6,5.4,8.3,6.5,8.6c4.3,1.1,7.8-1.5,10.5-4.7c4.8-5.5,7.8-13.6,10-18.1c2-4.1,2.4-5.7,2.8-6.4c-0.2,5.5-2.1,10.3-2.1,16
	c0,3.1,0,7.9,2.2,10.3c1.9,2.1,3.3,2.7,5.4,2.4c7.7-0.9,13-8.4,15.2-12.2c3-5.2,5-10.3,6.6-13.4c1.9-3.9,4.5-4.9,9.3-4.4
	c2.9,0.3,4.7,1.5,3.7,3.3c-2.3,4.4-11,18.8-12.1,22.3c-1.5,4.6,0.4,12.5,7.6,12.4c12.1-0.2,20.4-12.7,24.8-21.6
	c-0.1,3.3,0.3,6.6,1.9,9.8c1.5,3,3.6,5.5,6.8,5.6c4.6,0.2,8.8-1.3,12-4.4c2.5-2.5,4.7-5.3,7.1-8c0,0.6-0.1,1.3,0,2
	c0.2,2.8,0.4,4.4,1.4,7.3c0.5,1.5,1.6,3.4,3.3,3.7c0.7,0.1,1.9,0.3,4.6-0.2c2.7-0.5,8.6-2,12.8-8.3c2.9-4.2,6.8-11.6,9-15.1
	c-0.2,0.7-0.8,2.4-1,3.1c-1.5,4.8-1.3,10.3-1.3,14.3c0.1,4.7,1.2,7.4,6,8.6c4.9,1.3,6-1.9,5.8-5.8c0-1.2-1.2-6.7-0.9-11.5
	c0.3-5.5,3.5-9.4,7.9-12.1c2.3-1.5,4-0.6,4.1,2.2c0.1,1.2-0.1,2.5-0.3,3.8c-0.7,4.9-1.2,9.3-1.9,14.1c-1.4,9.1,6.4,8.8,7.1,8.9
	c3.8,0.6,5.3,0.7,5.4-3.6c0.1-4.6-1.3-7.9-1.3-12.4c0-3.9,0.6-6.2,3.8-9c1.6-1.4,3.5-2.7,5.4-1.6c1.9,1.2,1.5,3.5,1.2,5.6
	c-0.5,3.8-0.6,3.6-0.5,7.2c0.2,5.1,1.4,6.7,2.8,8C242.3,82.4,244.4,82.9,244.4,82.9"/>
<path fill="#FFFFFF" d="M98.8,18.4c0.3-0.1,0.8,0.1,1.5-0.2c0.8-0.3,1.2-0.8,1.3-0.9c0.1-0.1-0.7,0.4-0.9,0.4
	c-0.2,0.1-0.9,0.1-1.1,0.1c-0.1,0,1.8-0.9,2.5-1.6c0.7-0.7,1.2-1.5,1.3-2.7c0.1-1.1-0.2-1.8-0.2-2.5c0-0.8,0-0.8,0-0.9
	c0-0.1-0.2-0.2-0.2-0.3c0-0.1,1.1-1.8,1.4-2.5c0.8-1.7-1.7-5-2.6-5.5c-0.2-0.1-0.6-0.3-1.1-0.4c-0.5-0.1-3.8-2.7-8-0.6
	c-3,1.5-6.4,4.8-1.5,13.8C93.4,18.5,96.8,19.2,98.8,18.4"/>
<g>
	<path fill="#FFFFFF" d="M314.6,65.9c0,2.9-0.4,5.6-1.3,8.1c-0.8,2.5-2.1,4.7-3.7,6.6s-3.6,3.3-5.9,4.4c-2.3,1.1-4.9,1.6-7.9,1.6
		c-2.9,0-5.6-0.5-7.9-1.6c-2.3-1.1-4.3-2.5-5.9-4.4c-1.6-1.9-2.8-4-3.7-6.6c-0.8-2.5-1.3-5.2-1.3-8.1c0-2.9,0.4-5.6,1.3-8.1
		c0.8-2.5,2.1-4.7,3.7-6.6c1.6-1.9,3.6-3.3,5.9-4.4c2.3-1.1,5-1.6,7.9-1.6c2.9,0,5.6,0.5,7.9,1.6c2.3,1.1,4.3,2.5,5.9,4.4
		c1.6,1.9,2.8,4,3.7,6.6C314.1,60.4,314.6,63.1,314.6,65.9z M279.5,65.9c0,2.5,0.4,4.9,1.1,7.2c0.7,2.2,1.8,4.2,3.2,5.9
		c1.4,1.7,3.1,3,5.1,4c2,1,4.3,1.5,6.9,1.5c2.6,0,4.9-0.5,6.9-1.5c2-1,3.7-2.3,5.1-4c1.4-1.7,2.5-3.6,3.2-5.9
		c0.7-2.2,1.1-4.6,1.1-7.2c0-2.5-0.4-4.9-1.1-7.2c-0.7-2.2-1.8-4.2-3.2-5.9c-1.4-1.7-3.1-3-5.1-4c-2-1-4.3-1.5-6.9-1.5
		c-2.6,0-4.9,0.5-6.9,1.5c-2,1-3.7,2.3-5.1,4c-1.4,1.7-2.5,3.6-3.2,5.9C279.9,61,279.5,63.4,279.5,65.9z"/>
	<path fill="#FFFFFF" d="M321.1,46.2h16.8c1.1,0,2.3,0.1,3.7,0.4c1.3,0.3,2.6,0.8,3.8,1.6s2.1,1.9,2.9,3.4c0.8,1.5,1.2,3.4,1.2,5.7
		c0,3.5-1.1,6.1-3.2,8c-2.1,1.9-5.2,2.8-9.2,2.8h-13.5v17.5h-2.4V46.2z M323.5,66h13.8c1.8,0,3.3-0.3,4.5-0.8
		c1.2-0.5,2.2-1.2,2.9-2.1c0.7-0.8,1.3-1.8,1.6-2.8c0.3-1,0.5-2.1,0.5-3.1c0-0.7-0.1-1.6-0.3-2.6c-0.2-1-0.7-2-1.3-2.9
		s-1.6-1.7-2.8-2.4c-1.2-0.6-2.8-1-4.8-1h-14.2V66z"/>
	<path fill="#FFFFFF" d="M357.5,46.2v23.6c0,0.8,0,1.7,0.1,2.7c0.1,1,0.3,2.1,0.6,3.2c0.3,1.1,0.7,2.2,1.2,3.2c0.5,1,1.3,2,2.2,2.8
		s2,1.5,3.4,2c1.3,0.5,3,0.7,4.9,0.7c2.4,0,4.5-0.3,6.1-1c1.6-0.7,3-1.7,4-2.9s1.7-2.8,2.2-4.6c0.4-1.8,0.7-3.8,0.7-6.1V46.2h2.4
		v23.6c0,2.4-0.2,4.5-0.7,6.6c-0.5,2-1.3,3.8-2.5,5.3c-1.2,1.5-2.7,2.7-4.7,3.6s-4.4,1.3-7.4,1.3c-2.3,0-4.3-0.3-6-0.9
		c-1.7-0.6-3-1.4-4.1-2.3c-1.1-0.9-1.9-2-2.6-3.2c-0.6-1.2-1.1-2.4-1.4-3.7c-0.3-1.2-0.5-2.4-0.6-3.6c-0.1-1.2-0.1-2.2-0.1-3.1V46.2
		H357.5z"/>
	<path fill="#FFFFFF" d="M419.2,57.5c-0.1-1.7-0.4-3.2-1.1-4.4c-0.6-1.2-1.5-2.3-2.6-3.1c-1.1-0.8-2.4-1.5-3.9-1.9
		c-1.5-0.4-3.2-0.6-5-0.6c-1.1,0-2.3,0.1-3.6,0.4c-1.3,0.3-2.4,0.7-3.5,1.4c-1.1,0.6-2,1.5-2.7,2.6c-0.7,1.1-1,2.4-1,4.1
		c0,1.6,0.4,2.9,1.2,3.9c0.8,1,1.8,1.8,3,2.4c1.2,0.6,2.7,1.1,4.3,1.5c1.6,0.4,3.3,0.7,4.9,1c1.7,0.3,3.3,0.7,4.9,1.2s3,1.1,4.3,1.9
		c1.3,0.8,2.3,1.8,3.1,3.1c0.8,1.3,1.2,2.9,1.2,4.8c0,2.1-0.4,3.8-1.3,5.2c-0.9,1.4-2,2.5-3.3,3.4c-1.3,0.9-2.8,1.5-4.5,1.9
		c-1.6,0.4-3.2,0.6-4.7,0.6c-2.3,0-4.5-0.2-6.5-0.7c-2-0.5-3.8-1.3-5.3-2.4c-1.5-1.1-2.7-2.6-3.6-4.3c-0.9-1.8-1.3-3.9-1.2-6.5h2.4
		c-0.1,2.2,0.2,4,0.9,5.5c0.7,1.5,1.8,2.7,3.1,3.7s2.8,1.6,4.6,2.1s3.6,0.6,5.6,0.6c1.2,0,2.4-0.1,3.8-0.4c1.3-0.3,2.6-0.8,3.7-1.5
		c1.1-0.7,2.1-1.6,2.8-2.8c0.8-1.1,1.1-2.6,1.1-4.3c0-1.7-0.4-3-1.2-4.1c-0.8-1-1.8-1.9-3.1-2.5s-2.7-1.2-4.3-1.5
		c-1.6-0.4-3.2-0.7-4.9-1.1c-1.7-0.3-3.3-0.7-4.9-1.2c-1.6-0.4-3.1-1-4.3-1.8c-1.2-0.8-2.3-1.7-3-2.9c-0.8-1.2-1.2-2.7-1.2-4.6
		c0-1.9,0.4-3.5,1.2-4.8c0.8-1.3,1.8-2.4,3.1-3.3s2.7-1.4,4.3-1.8c1.6-0.4,3.1-0.6,4.7-0.6c2.1,0,4,0.2,5.8,0.7
		c1.8,0.5,3.3,1.2,4.7,2.2c1.3,1,2.4,2.2,3.2,3.8c0.8,1.5,1.3,3.4,1.4,5.6H419.2z"/>
</g>
</svg>
